<svg width="893" height="679" viewBox="0 0 893 679" fill="none" xmlns="http://www.w3.org/2000/svg">
<path fill-rule="evenodd" clip-rule="evenodd" d="M428.357 -330.244C457.888 -324.971 487.85 -319.62 519.822 -309.419C520.411 -309.227 521.045 -309.021 521.722 -308.8C567.09 -294.04 805.245 -216.555 876.493 65.0775C948.804 350.91 770.649 596.798 510.211 662.685C249.774 728.571 -36.5866 582.99 -106.982 304.729C-177.378 26.4672 7.34262 -157.988 42.1606 -188.579C52.2535 -197.928 61.7818 -206.286 71.0665 -214.43C99.4668 -239.34 125.588 -262.251 158.611 -305.43C179.012 -333.534 194.201 -369.471 182.895 -445.817C233.568 -409.141 293.698 -366.994 332.932 -352.817C365.54 -341.46 396.701 -335.896 428.357 -330.244ZM148.47 419.009C128.355 334.903 187.276 236.215 286.401 209.656C359.978 190.366 431.277 217.736 490.528 240.48C532.864 256.732 569.049 270.622 595.518 263.442C622.599 256.007 655.598 218.812 688.175 182.094L688.175 182.093C720.246 145.945 751.907 110.259 777.108 103.883C831.126 90.2173 860.428 142.482 868.887 175.917C877.345 209.352 881.819 272.474 865.753 316.69C849.686 360.905 836.368 379.226 805.895 384.615C787.452 387.695 754.208 367.546 718.852 346.119C678.068 321.401 634.475 294.98 607.553 300.548C579.527 306.615 543.906 342.478 503.656 383C452.636 434.366 394.178 493.219 334.328 508.36C269.507 524.759 247.618 519.92 222.411 511.41C184.269 496.956 159.39 466.515 148.424 418.827L148.47 419.009ZM652.48 379.86C637.422 374.454 618.756 378.016 601.458 382.392L601.519 382.376C599.507 382.885 597.594 383.354 595.757 383.803C581.798 387.22 572.265 389.554 557.759 400.343C541.657 412.319 527.038 433.844 517.603 447.736L517.061 448.534C507.65 462.386 507.839 471.812 516.448 478.528C525.016 485.212 530.139 478.276 544.557 458.753L544.762 458.475C546.033 456.754 547.259 455.062 548.462 453.4C561.062 436.004 571.251 421.935 605.766 413.203C642.751 403.847 653.043 415.24 663.959 427.323C664.204 427.593 664.448 427.864 664.693 428.135L664.804 428.258C675.907 440.522 677.546 442.333 683.963 436.149C685.902 434.93 687.549 433.301 688.789 431.378C690.028 429.454 690.83 427.283 691.138 425.017C691.445 422.751 691.251 420.446 690.568 418.264C689.886 416.082 688.731 414.077 687.187 412.39L687.101 412.271C680.047 402.557 667.477 385.244 652.48 379.86ZM584.285 550.883C515.093 568.388 479.128 562.535 453.154 550.738L453.305 550.571C452.765 550.383 452.325 550.216 451.948 550.073C449.709 549.225 449.709 549.225 444.15 550.631C438.12 552.623 433.029 556.754 429.845 562.242C428.657 564.086 427.862 566.153 427.507 568.316C427.153 570.479 427.247 572.691 427.784 574.815C428.322 576.939 429.291 578.93 430.631 580.664C431.971 582.398 433.654 583.838 435.576 584.895C494.025 616.059 572.1 592.828 629.123 572.666C669.061 557.422 704.248 531.886 731.098 498.661C733.038 495.808 734.055 492.431 734.015 488.985C733.974 485.538 732.877 482.188 730.871 479.385C728.676 475.3 722.681 469.985 714.87 479.952C697.173 501.637 653.476 533.379 584.285 550.883Z" fill="url(#paint0_linear_94_789)" fill-opacity="0.548"/>
<defs>
<linearGradient id="paint0_linear_94_789" x1="2010.19" y1="-1605.77" x2="-219.567" y2="-632.114" gradientUnits="userSpaceOnUse">
<stop/>
<stop offset="1" stop-color="white" stop-opacity="0"/>
</linearGradient>
</defs>
</svg>
